Coordinates
version=1
nRows=13
nColumns=22
inDegrees=yes

Units are S.I. units (second, meters, Newtons, ...)
If the header above contains a line with 'inDegrees', this indicates whether rotational values are in degrees (yes) or radians (no).

endheader
time	pelvis_tilt	pelvis_list	pelvis_rotation	pelvis_tx	pelvis_ty	pelvis_tz	hip_flexion_r	hip_adduction_r	hip_rotation_r	knee_angle_r	ankle_angle_r	subtalar_angle_r	hip_flexion_l	hip_adduction_l	hip_rotation_l	knee_angle_l	ankle_angle_l	subtalar_angle_l	lumbar_extension	lumbar_bending	lumbar_rotation
      5.56000000	    -10.85170916	     -5.03475161	     -6.29183077	      0.77025155	      0.96981695	      0.30023975	     10.96547610	     10.01106994	     -1.34266406	    -19.26245420	     22.81376042	     -6.96894574	     36.26285807	     -9.87321617	     -2.44001600	    -18.50487643	     10.81663936	      5.98029973	     -1.34853511	      8.20936033	      7.39666923
      5.57000000	    -10.84551578	     -5.06868909	     -6.41472606	      0.77471315	      0.96934145	      0.29929052	     10.68548094	      9.96763758	     -1.19515679	    -19.30595741	     23.00383722	     -6.79770693	     35.99259277	     -9.97865513	     -2.85105979	    -18.60970711	     10.58692529	      5.95788385	     -1.26114508	      8.23519794	      7.41460605
      5.58000000	    -10.87100326	     -5.07722776	     -6.52054812	      0.77918402	      0.96889498	      0.29826384	     10.45593554	      9.89346171	     -1.06239737	    -19.37282017	     23.17516593	     -6.64797936	     35.75579113	    -10.04907113	     -3.28685671	    -18.68038763	     10.20823079	      5.95134474	     -1.13257033	      8.23606196	      7.40320693
      5.59000000	    -10.91256552	     -5.04706133	     -6.60121779	      0.78368607	      0.96851995	      0.29714358	     10.25437856	      9.76948257	     -0.95935305	    -19.44823975	     23.32167697	     -6.48670503	     35.53881465	    -10.06687185	     -3.75968919	    -18.71334807	      9.70954007	      5.95125103	     -0.97867726	      8.19401494	      7.35663828
      5.60000000	    -10.94660177	     -4.95899372	     -6.65914558	      0.78825198	      0.96825642	      0.29589765	     10.05513235	      9.56892686	     -0.88079188	    -19.53300287	     23.48270810	     -6.21623435	     35.31777291	    -10.01129489	     -4.28780057	    -18.71632442	      9.18076668	      5.94675861	     -0.82175088	      8.09110303	      7.28420137
      5.61000000	    -11.01652271	     -4.86036935	     -6.67499384	      0.79279019	      0.96805313	      0.29451131	      9.91492132	      9.35176290	     -0.82798043	    -19.64107006	     23.55848761	     -6.04679144	     35.13632798	     -9.90313170	     -4.71500890	    -18.66861477	      8.52815401	      5.94875839	     -0.62524195	      7.98564027	      7.17152035
      5.62000000	    -11.08050199	     -4.70971351	     -6.66880181	      0.79739036	      0.96795658	      0.29299129	      9.78260696	      9.06482096	     -0.80283761	    -19.76679278	     23.63667736	     -5.83118291	     34.94963632	     -9.71723105	     -5.12717281	    -18.60990388	      7.90024812	      5.94002869	     -0.42556548	      7.82843126	      7.02899896
      5.63000000	    -11.11913089	     -4.51765832	     -6.62555949	      0.80206974	      0.96797941	      0.29132291	      9.63259867	      8.71598939	     -0.79851290	    -19.90718692	     23.74188566	     -5.46178017	     34.74290784	     -9.45249280	     -5.49443482	    -18.56087889	      7.36216092	      5.89105218	     -0.24487836	      7.62651725	      6.85844905
      5.64000000	    -11.15350397	     -4.34022816	     -6.55188653	      0.80678511	      0.96811837	      0.28954698	      9.48007720	      8.37214311	     -0.82356340	    -20.05095697	     23.76427303	     -5.04996035	     34.52541770	     -9.16244660	     -5.74107953	    -18.49840133	      6.82664297	      5.79565998	     -0.07092267	      7.44571812	      6.67462781
      5.65000000	    -11.19379820	     -4.13477003	     -6.43883287	      0.81154595	      0.96830435	      0.28763994	      9.34714907	      7.98988670	     -0.86931365	    -20.21518569	     23.76957649	     -4.78699373	     34.32483107	     -8.80490439	     -5.89076694	    -18.45991721	      6.40046679	      5.69511800	      0.11908630	      7.23720078	      6.45098266
      5.66000000	    -11.20118138	     -3.93517448	     -6.30817898	      0.81637407	      0.96862464	      0.28565522	      9.17689544	      7.60190948	     -0.92646505	    -20.38127329	     23.73923665	     -4.37958463	     34.09170826	     -8.42916031	     -5.98551010	    -18.44224408	      6.06675708	      5.49262500	      0.27095414	      7.03572205	      6.23455942
      5.67000000	    -11.22158269	     -3.74537201	     -6.15966922	      0.82119402	      0.96898565	      0.28360509	      9.03673601	      7.22133033	     -1.00567001	    -20.57372296	     23.61884144	     -4.10658994	     33.88488754	     -8.04160252	     -5.99037476	    -18.45405640	      5.80010125	      5.33455475	      0.43239972	      6.84550000	      6.04008483
      5.68000000	    -11.18188055	     -3.57160995	     -6.00265004	      0.82613424	      0.96950026	      0.28152450	      8.81158631	      6.84876250	     -1.05627343	    -20.74428948	     23.54160994	     -3.50577113	     33.60790708	     -7.66287732	     -6.02721265	    -18.48062286	      5.70237723	      4.94846712	      0.52987442	      6.66875213	      5.82984076
